#define shitsplit_width 16
#define shitsplit_height 16
static char shitsplit_bits[] = {
  0xFF, 0xF3, 0xFF, 0xE3, 0xFF, 0xE1, 0xFF, 0xF1, 0xFF, 0xE1, 0xCF, 0xF1, 
  0x07, 0xFD, 0x17, 0xFB, 0x63, 0xF7, 0xC7, 0xF7, 0xDF, 0xFF, 0xF3, 0xFF, 
  0xE7, 0xFF, 0xFB, 0xFF, 0xF7, 0xFE, 0xFF, 0xFF, };
